<?xml version="1.0" standalone="no"?>
<!DOCTYPE svg PUBLIC "-//W3C//DTD SVG 1.1//EN" "http://www.w3.org/Graphics/SVG/1.1/DTD/svg11.dtd">
<svg width="512" height="464" version="1.1" xmlns="http://www.w3.org/2000/svg">
    <polygon points="256,6 18.235,178.745 109.053,458.254 402.946,458.254 493.764,178.745" style="fill:#DDD; stroke:#999; stroke-width:1;" />
    <polygon points="256,56 65.789,194.197 138.443,417.803 373.557,417.803 446.211,194.197" style="fill:#CCC;" />
    <polygon points="256,106 113.342,209.647 167.832,377.353 344.168,377.353 398.658,209.647" style="fill:#DDD;" />
    <polygon points="256,156 160.894,225.098 197.221,336.902 314.779,336.902 351.106,225.098" style="fill:#CCC;" />
    <polygon points="256,206 208.447,240.549 226.611,296.451 285.389,296.451 303.553,240.549" style="fill:#DDD;" />
    <line x1="256" y1="256" x2="256" y2="6" style="stroke:#999; stroke-width:1;"/>
    <line x1="256" y1="256" x2="18.235" y2="178.745" style="stroke:#999; stroke-width:1;"/>
    <line x1="256" y1="256" x2="109.053" y2="458.254" style="stroke:#999; stroke-width:1;"/>
    <line x1="256" y1="256" x2="402.946" y2="458.254" style="stroke:#999; stroke-width:1;"/>
    <line x1="256" y1="256" x2="493.764" y2="178.745" style="stroke:#999; stroke-width:1;"/>
    <!--Detail content START-->
    <polygon points="256,6 155.408,223.316 153,397.767 389.588,439.868 317.643,235.971" style="fill:#CD212B; opacity:0.7;" />
    <circle cx="256" cy="6" r="3.5" style="fill:#FFF; stroke:#999; stroke-width:1;" />
    <circle cx="155.408" cy="223.316" r="3.5" style="fill:#FFF; stroke:#999; stroke-width:1;" />
    <circle cx="153" cy="397.767" r="3.5" style="fill:#FFF; stroke:#999; stroke-width:1;" />
    <circle cx="389.588" cy="439.868" r="3.5" style="fill:#FFF; stroke:#999; stroke-width:1;" />
    <circle cx="317.643" cy="235.971" r="3.5" style="fill:#FFF; stroke:#999; stroke-width:1;" />
    <!--Detail content END-->
</svg>