<?xml version="1.0" standalone="no"?>
<!DOCTYPE svg PUBLIC "-//W3C//DTD SVG 1.1//EN" "http://www.w3.org/Graphics/SVG/1.1/DTD/svg11.dtd">
<svg width="375" height="375" version="1.1" xmlns="http://www.w3.org/2000/svg">
    <polygon points="187.5,57.5 63.863,147.328 111.088,292.672 263.912,292.672 311.137,147.328" style="fill:#DDD; stroke:#999; stroke-width:1;" />
    <polygon points="187.5,83.5 88.59,155.362 126.37,271.638 248.63,271.638 286.41,155.362" style="fill:#CCC;" />
    <polygon points="187.5,109.5 113.318,163.397 141.653,250.603 233.347,250.603 261.682,163.397" style="fill:#DDD;" />
    <polygon points="187.5,135.5 138.045,171.431 156.935,229.569 218.065,229.569 236.955,171.431" style="fill:#CCC;" />
    <polygon points="187.5,161.5 162.773,179.466 172.218,208.534 202.782,208.534 212.227,179.466" style="fill:#DDD;" />
    <line x1="187.5" y1="187.5" x2="187.5" y2="57.5" style="stroke:#999; stroke-width:1;"/>
    <line x1="187.5" y1="187.5" x2="63.863" y2="147.328" style="stroke:#999; stroke-width:1;"/>
    <line x1="187.5" y1="187.5" x2="111.088" y2="292.672" style="stroke:#999; stroke-width:1;"/>
    <line x1="187.5" y1="187.5" x2="263.912" y2="292.672" style="stroke:#999; stroke-width:1;"/>
    <line x1="187.5" y1="187.5" x2="311.137" y2="147.328" style="stroke:#999; stroke-width:1;"/>
    <text x="187.5" y="44.5" style="fill:#999; font-size:24px; text-anchor:middle;">得分</text>
    <text x="30.723" y="150.585" style="fill:#999; font-size:24px; text-anchor:middle;">篮板</text>
    <text x="93.752" y="323.415" style="fill:#999; font-size:24px; text-anchor:middle;">助攻</text>
    <text x="281.248" y="323.415" style="fill:#999; font-size:24px; text-anchor:middle;">抢断</text>
    <text x="347.277" y="150.585" style="fill:#999; font-size:24px; text-anchor:middle;">盖帽</text>
    <!--Detail content START-->
    <polygon points="187.5,57.5 135.192,170.504 133.94,261.219 256.966,283.111 219.554,177.085" style="fill:#CD212B; opacity:0.7; stroke:#000; stroke-width:1;" />
    <circle cx="187.5" cy="57.5" r="3.5" style="fill:#FFF; opacity:0.7; stroke:#000; stroke-width:1;" />
    <circle cx="135.192" cy="170.504" r="3.5" style="fill:#FFF; opacity:0.7; stroke:#000; stroke-width:1;" />
    <circle cx="133.94" cy="261.219" r="3.5" style="fill:#FFF; opacity:0.7; stroke:#000; stroke-width:1;" />
    <circle cx="256.966" cy="283.111" r="3.5" style="fill:#FFF; opacity:0.7; stroke:#000; stroke-width:1;" />
    <circle cx="219.554" cy="177.085" r="3.5" style="fill:#FFF; opacity:0.7; stroke:#000; stroke-width:1;" />
    <!--Detail content END-->
</svg>