<?xml version="1.0" standalone="no"?>
<!DOCTYPE svg PUBLIC "-//W3C//DTD SVG 1.1//EN" "http://www.w3.org/Graphics/SVG/1.1/DTD/svg11.dtd">
<svg width="375" height="375" version="1.1" xmlns="http://www.w3.org/2000/svg">
    <polygon points="187.5,57.5 95.576,95.576 57.5,187.5 95.576,279.424 187.5,317.5 279.424,279.424 317.5,187.5 279.424,95.576" style="fill:#DDD; stroke:#999; stroke-width:1;" />
    <polygon points="187.5,83.5 113.961,113.961 83.5,187.5 113.961,261.039 187.5,291.5 261.039,261.039 291.5,187.5 261.039,113.961" style="fill:#CCC;" />
    <polygon points="187.5,109.5 132.346,132.346 109.5,187.5 132.346,242.654 187.5,265.5 242.654,242.654 265.5,187.5 242.654,132.346" style="fill:#DDD;" />
    <polygon points="187.5,135.5 150.73,150.73 135.5,187.5 150.73,224.27 187.5,239.5 224.27,224.27 239.5,187.5 224.27,150.73" style="fill:#CCC;" />
    <polygon points="187.5,161.5 169.115,169.115 161.5,187.5 169.115,205.885 187.5,213.5 205.885,205.885 213.5,187.5 205.885,169.115" style="fill:#DDD;" />
    <line x1="187.5" y1="187.5" x2="187.5" y2="57.5" style="stroke:#999; stroke-width:1;"/>
    <line x1="187.5" y1="187.5" x2="95.576" y2="95.576" style="stroke:#999; stroke-width:1;"/>
    <line x1="187.5" y1="187.5" x2="57.5" y2="187.5" style="stroke:#999; stroke-width:1;"/>
    <line x1="187.5" y1="187.5" x2="95.576" y2="279.424" style="stroke:#999; stroke-width:1;"/>
    <line x1="187.5" y1="187.5" x2="187.5" y2="317.5" style="stroke:#999; stroke-width:1;"/>
    <line x1="187.5" y1="187.5" x2="279.424" y2="279.424" style="stroke:#999; stroke-width:1;"/>
    <line x1="187.5" y1="187.5" x2="317.5" y2="187.5" style="stroke:#999; stroke-width:1;"/>
    <line x1="187.5" y1="187.5" x2="279.424" y2="95.576" style="stroke:#999; stroke-width:1;"/>
    <text x="187.5" y="46.5" style="fill:#999; font-size:24px; text-anchor:middle;">得分</text>
    <text x="77.191" y="82.191" style="fill:#999; font-size:24px; text-anchor:middle;">篮板</text>
    <text x="31.5" y="192.5" style="fill:#999; font-size:24px; text-anchor:middle;">助攻</text>
    <text x="77.191" y="307.809" style="fill:#999; font-size:24px; text-anchor:middle;">抢断</text>
    <text x="187.5" y="348.5" style="fill:#999; font-size:24px; text-anchor:middle;">盖帽</text>
    <text x="297.809" y="307.809" style="fill:#999; font-size:24px; text-anchor:middle;">投篮</text>
    <text x="343.5" y="192.5" style="fill:#999; font-size:24px; text-anchor:middle;">三分</text>
    <text x="297.809" y="82.191" style="fill:#999; font-size:24px; text-anchor:middle;">罚球</text>
    <!--Detail content START-->
    <polygon points="187.5,57.5 148.609,148.609 96.379,187.5 103.933,271.067 187.5,221.204 274.714,274.714 302.187,187.5 276.297,98.703" style="fill:#CD212B; opacity:0.7; stroke:#000; stroke-width:1;" />
    <circle cx="187.5" cy="57.5" r="3.5" style="fill:#FFF; opacity:0.7; stroke:#000; stroke-width:1;" />
    <circle cx="148.609" cy="148.609" r="3.5" style="fill:#FFF; opacity:0.7; stroke:#000; stroke-width:1;" />
    <circle cx="96.379" cy="187.5" r="3.5" style="fill:#FFF; opacity:0.7; stroke:#000; stroke-width:1;" />
    <circle cx="103.933" cy="271.067" r="3.5" style="fill:#FFF; opacity:0.7; stroke:#000; stroke-width:1;" />
    <circle cx="187.5" cy="221.204" r="3.5" style="fill:#FFF; opacity:0.7; stroke:#000; stroke-width:1;" />
    <circle cx="274.714" cy="274.714" r="3.5" style="fill:#FFF; opacity:0.7; stroke:#000; stroke-width:1;" />
    <circle cx="302.187" cy="187.5" r="3.5" style="fill:#FFF; opacity:0.7; stroke:#000; stroke-width:1;" />
    <circle cx="276.297" cy="98.703" r="3.5" style="fill:#FFF; opacity:0.7; stroke:#000; stroke-width:1;" />
    <!--Detail content END-->
</svg>